<svg class="main-svg" xmlns="http://www.w3.org/2000/svg" xmlns:xlink="http://www.w3.org/1999/xlink" width="1200" height="600" style="" viewBox="0 0 1200 600"><rect x="0" y="0" width="1200" height="600" style="fill: rgb(255, 255, 255); fill-opacity: 1;"/><defs id="defs-2a2e76"><g class="clips"><clipPath id="clip2a2e76xyplot" class="plotclip"><rect width="1152" height="519"/></clipPath><clipPath class="axesclip" id="clip2a2e76x"><rect x="48" y="0" width="1152" height="600"/></clipPath><clipPath class="axesclip" id="clip2a2e76y"><rect x="0" y="0" width="1200" height="519"/></clipPath><clipPath class="axesclip" id="clip2a2e76xy"><rect x="48" y="0" width="1152" height="519"/></clipPath></g><g class="gradients"/><g class="patterns"/></defs><g class="bglayer"/><g class="layer-below"><g class="imagelayer"/><g class="shapelayer"/></g><g class="cartesianlayer"><g class="subplot xy"><g class="layer-subplot"><g class="shapelayer"/><g class="imagelayer"/></g><g class="gridlayer"><g class="x"><path class="xgrid crisp" transform="translate(319.41,0)" d="M0,0v519" style="stroke: rgb(55, 68, 79); stroke-opacity: 1; stroke-width: 1px;"/><path class="xgrid crisp" transform="translate(529.47,0)" d="M0,0v519" style="stroke: rgb(55, 68, 79); stroke-opacity: 1; stroke-width: 1px;"/><path class="xgrid crisp" transform="translate(739.53,0)" d="M0,0v519" style="stroke: rgb(55, 68, 79); stroke-opacity: 1; stroke-width: 1px;"/><path class="xgrid crisp" transform="translate(949.59,0)" d="M0,0v519" style="stroke: rgb(55, 68, 79); stroke-opacity: 1; stroke-width: 1px;"/><path class="xgrid crisp" transform="translate(1159.66,0)" d="M0,0v519" style="stroke: rgb(55, 68, 79); stroke-opacity: 1; stroke-width: 1px;"/></g><g class="y"><path class="ygrid crisp" transform="translate(0,422.21)" d="M48,0h1152" style="stroke: rgb(55, 68, 79); stroke-opacity: 1; stroke-width: 1px;"/><path class="ygrid crisp" transform="translate(0,355.13)" d="M48,0h1152" style="stroke: rgb(55, 68, 79); stroke-opacity: 1; stroke-width: 1px;"/><path class="ygrid crisp" transform="translate(0,288.04)" d="M48,0h1152" style="stroke: rgb(55, 68, 79); stroke-opacity: 1; stroke-width: 1px;"/><path class="ygrid crisp" transform="translate(0,220.95)" d="M48,0h1152" style="stroke: rgb(55, 68, 79); stroke-opacity: 1; stroke-width: 1px;"/><path class="ygrid crisp" transform="translate(0,153.87)" d="M48,0h1152" style="stroke: rgb(55, 68, 79); stroke-opacity: 1; stroke-width: 1px;"/><path class="ygrid crisp" transform="translate(0,86.78)" d="M48,0h1152" style="stroke: rgb(55, 68, 79); stroke-opacity: 1; stroke-width: 1px;"/><path class="ygrid crisp" transform="translate(0,19.69)" d="M48,0h1152" style="stroke: rgb(55, 68, 79); stroke-opacity: 1; stroke-width: 1px;"/></g></g><g class="zerolinelayer"><path class="xzl zl crisp" transform="translate(109.35,0)" d="M0,0v519" style="stroke: rgb(68, 68, 68); stroke-opacity: 1; stroke-width: 1px;"/><path class="yzl zl crisp" transform="translate(0,489.3)" d="M48,0h1152" style="stroke: rgb(68, 68, 68); stroke-opacity: 1; stroke-width: 1px;"/></g><path class="xlines-below"/><path class="ylines-below"/><g class="overlines-below"/><g class="xaxislayer-below"/><g class="yaxislayer-below"/><g class="overaxes-below"/><g class="plot" transform="translate(48,0)" clip-path="url(#clip2a2e76xyplot)"><g class="scatterlayer mlayer"><g class="trace scatter trace0fb8b3" style="stroke-miterlimit: 2; opacity: 1;"><g class="fills"/><g class="errorbars"/><g class="lines"><path class="js-line" style="vector-effect: non-scaling-stroke; fill: none; stroke: rgb(34, 114, 180); stroke-opacity: 1; stroke-width: 2px; opacity: 1;" d="M61.35,29.7L82.36,489.3L103.36,489.3L1090.65,489.29"/></g><g class="points"><path class="point" transform="translate(61.35,29.7)" style="opacity: 1; stroke-width: 0px; fill: rgb(34, 114, 180); fill-opacity: 1;" d="M3,0A3,3 0 1,1 0,-3A3,3 0 0,1 3,0Z"/><path class="point" transform="translate(82.36,489.3)" style="opacity: 1; stroke-width: 0px; fill: rgb(34, 114, 180); fill-opacity: 1;" d="M3,0A3,3 0 1,1 0,-3A3,3 0 0,1 3,0Z"/><path class="point" transform="translate(103.36,489.3)" style="opacity: 1; stroke-width: 0px; fill: rgb(34, 114, 180); fill-opacity: 1;" d="M3,0A3,3 0 1,1 0,-3A3,3 0 0,1 3,0Z"/><path class="point" transform="translate(124.37,489.3)" style="opacity: 1; stroke-width: 0px; fill: rgb(34, 114, 180); fill-opacity: 1;" d="M3,0A3,3 0 1,1 0,-3A3,3 0 0,1 3,0Z"/><path class="point" transform="translate(145.37,489.3)" style="opacity: 1; stroke-width: 0px; fill: rgb(34, 114, 180); fill-opacity: 1;" d="M3,0A3,3 0 1,1 0,-3A3,3 0 0,1 3,0Z"/><path class="point" transform="translate(166.38,489.3)" style="opacity: 1; stroke-width: 0px; fill: rgb(34, 114, 180); fill-opacity: 1;" d="M3,0A3,3 0 1,1 0,-3A3,3 0 0,1 3,0Z"/><path class="point" transform="translate(187.39,489.3)" style="opacity: 1; stroke-width: 0px; fill: rgb(34, 114, 180); fill-opacity: 1;" d="M3,0A3,3 0 1,1 0,-3A3,3 0 0,1 3,0Z"/><path class="point" transform="translate(208.39,489.3)" style="opacity: 1; stroke-width: 0px; fill: rgb(34, 114, 180); fill-opacity: 1;" d="M3,0A3,3 0 1,1 0,-3A3,3 0 0,1 3,0Z"/><path class="point" transform="translate(229.4,489.29)" style="opacity: 1; stroke-width: 0px; fill: rgb(34, 114, 180); fill-opacity: 1;" d="M3,0A3,3 0 1,1 0,-3A3,3 0 0,1 3,0Z"/><path class="point" transform="translate(250.41,489.29)" style="opacity: 1; stroke-width: 0px; fill: rgb(34, 114, 180); fill-opacity: 1;" d="M3,0A3,3 0 1,1 0,-3A3,3 0 0,1 3,0Z"/><path class="point" transform="translate(271.41,489.29)" style="opacity: 1; stroke-width: 0px; fill: rgb(34, 114, 180); fill-opacity: 1;" d="M3,0A3,3 0 1,1 0,-3A3,3 0 0,1 3,0Z"/><path class="point" transform="translate(292.42,489.29)" style="opacity: 1; stroke-width: 0px; fill: rgb(34, 114, 180); fill-opacity: 1;" d="M3,0A3,3 0 1,1 0,-3A3,3 0 0,1 3,0Z"/><path class="point" transform="translate(313.42,489.29)" style="opacity: 1; stroke-width: 0px; fill: rgb(34, 114, 180); fill-opacity: 1;" d="M3,0A3,3 0 1,1 0,-3A3,3 0 0,1 3,0Z"/><path class="point" transform="translate(334.43,489.29)" style="opacity: 1; stroke-width: 0px; fill: rgb(34, 114, 180); fill-opacity: 1;" d="M3,0A3,3 0 1,1 0,-3A3,3 0 0,1 3,0Z"/><path class="point" transform="translate(355.44,489.29)" style="opacity: 1; stroke-width: 0px; fill: rgb(34, 114, 180); fill-opacity: 1;" d="M3,0A3,3 0 1,1 0,-3A3,3 0 0,1 3,0Z"/><path class="point" transform="translate(376.44,489.29)" style="opacity: 1; stroke-width: 0px; fill: rgb(34, 114, 180); fill-opacity: 1;" d="M3,0A3,3 0 1,1 0,-3A3,3 0 0,1 3,0Z"/><path class="point" transform="translate(397.45,489.29)" style="opacity: 1; stroke-width: 0px; fill: rgb(34, 114, 180); fill-opacity: 1;" d="M3,0A3,3 0 1,1 0,-3A3,3 0 0,1 3,0Z"/><path class="point" transform="translate(418.45,489.29)" style="opacity: 1; stroke-width: 0px; fill: rgb(34, 114, 180); fill-opacity: 1;" d="M3,0A3,3 0 1,1 0,-3A3,3 0 0,1 3,0Z"/><path class="point" transform="translate(439.46,489.29)" style="opacity: 1; stroke-width: 0px; fill: rgb(34, 114, 180); fill-opacity: 1;" d="M3,0A3,3 0 1,1 0,-3A3,3 0 0,1 3,0Z"/><path class="point" transform="translate(460.47,489.29)" style="opacity: 1; stroke-width: 0px; fill: rgb(34, 114, 180); fill-opacity: 1;" d="M3,0A3,3 0 1,1 0,-3A3,3 0 0,1 3,0Z"/><path class="point" transform="translate(481.47,489.29)" style="opacity: 1; stroke-width: 0px; fill: rgb(34, 114, 180); fill-opacity: 1;" d="M3,0A3,3 0 1,1 0,-3A3,3 0 0,1 3,0Z"/><path class="point" transform="translate(502.48,489.29)" style="opacity: 1; stroke-width: 0px; fill: rgb(34, 114, 180); fill-opacity: 1;" d="M3,0A3,3 0 1,1 0,-3A3,3 0 0,1 3,0Z"/><path class="point" transform="translate(523.48,489.29)" style="opacity: 1; stroke-width: 0px; fill: rgb(34, 114, 180); fill-opacity: 1;" d="M3,0A3,3 0 1,1 0,-3A3,3 0 0,1 3,0Z"/><path class="point" transform="translate(544.49,489.29)" style="opacity: 1; stroke-width: 0px; fill: rgb(34, 114, 180); fill-opacity: 1;" d="M3,0A3,3 0 1,1 0,-3A3,3 0 0,1 3,0Z"/><path class="point" transform="translate(565.5,489.29)" style="opacity: 1; stroke-width: 0px; fill: rgb(34, 114, 180); fill-opacity: 1;" d="M3,0A3,3 0 1,1 0,-3A3,3 0 0,1 3,0Z"/><path class="point" transform="translate(586.5,489.29)" style="opacity: 1; stroke-width: 0px; fill: rgb(34, 114, 180); fill-opacity: 1;" d="M3,0A3,3 0 1,1 0,-3A3,3 0 0,1 3,0Z"/><path class="point" transform="translate(607.51,489.29)" style="opacity: 1; stroke-width: 0px; fill: rgb(34, 114, 180); fill-opacity: 1;" d="M3,0A3,3 0 1,1 0,-3A3,3 0 0,1 3,0Z"/><path class="point" transform="translate(628.52,489.29)" style="opacity: 1; stroke-width: 0px; fill: rgb(34, 114, 180); fill-opacity: 1;" d="M3,0A3,3 0 1,1 0,-3A3,3 0 0,1 3,0Z"/><path class="point" transform="translate(649.52,489.29)" style="opacity: 1; stroke-width: 0px; fill: rgb(34, 114, 180); fill-opacity: 1;" d="M3,0A3,3 0 1,1 0,-3A3,3 0 0,1 3,0Z"/><path class="point" transform="translate(670.53,489.29)" style="opacity: 1; stroke-width: 0px; fill: rgb(34, 114, 180); fill-opacity: 1;" d="M3,0A3,3 0 1,1 0,-3A3,3 0 0,1 3,0Z"/><path class="point" transform="translate(691.53,489.29)" style="opacity: 1; stroke-width: 0px; fill: rgb(34, 114, 180); fill-opacity: 1;" d="M3,0A3,3 0 1,1 0,-3A3,3 0 0,1 3,0Z"/><path class="point" transform="translate(712.54,489.29)" style="opacity: 1; stroke-width: 0px; fill: rgb(34, 114, 180); fill-opacity: 1;" d="M3,0A3,3 0 1,1 0,-3A3,3 0 0,1 3,0Z"/><path class="point" transform="translate(733.55,489.29)" style="opacity: 1; stroke-width: 0px; fill: rgb(34, 114, 180); fill-opacity: 1;" d="M3,0A3,3 0 1,1 0,-3A3,3 0 0,1 3,0Z"/><path class="point" transform="translate(754.55,489.29)" style="opacity: 1; stroke-width: 0px; fill: rgb(34, 114, 180); fill-opacity: 1;" d="M3,0A3,3 0 1,1 0,-3A3,3 0 0,1 3,0Z"/><path class="point" transform="translate(775.56,489.29)" style="opacity: 1; stroke-width: 0px; fill: rgb(34, 114, 180); fill-opacity: 1;" d="M3,0A3,3 0 1,1 0,-3A3,3 0 0,1 3,0Z"/><path class="point" transform="translate(796.56,489.29)" style="opacity: 1; stroke-width: 0px; fill: rgb(34, 114, 180); fill-opacity: 1;" d="M3,0A3,3 0 1,1 0,-3A3,3 0 0,1 3,0Z"/><path class="point" transform="translate(817.57,489.29)" style="opacity: 1; stroke-width: 0px; fill: rgb(34, 114, 180); fill-opacity: 1;" d="M3,0A3,3 0 1,1 0,-3A3,3 0 0,1 3,0Z"/><path class="point" transform="translate(838.58,489.29)" style="opacity: 1; stroke-width: 0px; fill: rgb(34, 114, 180); fill-opacity: 1;" d="M3,0A3,3 0 1,1 0,-3A3,3 0 0,1 3,0Z"/><path class="point" transform="translate(859.58,489.29)" style="opacity: 1; stroke-width: 0px; fill: rgb(34, 114, 180); fill-opacity: 1;" d="M3,0A3,3 0 1,1 0,-3A3,3 0 0,1 3,0Z"/><path class="point" transform="translate(880.59,489.29)" style="opacity: 1; stroke-width: 0px; fill: rgb(34, 114, 180); fill-opacity: 1;" d="M3,0A3,3 0 1,1 0,-3A3,3 0 0,1 3,0Z"/><path class="point" transform="translate(901.59,489.29)" style="opacity: 1; stroke-width: 0px; fill: rgb(34, 114, 180); fill-opacity: 1;" d="M3,0A3,3 0 1,1 0,-3A3,3 0 0,1 3,0Z"/><path class="point" transform="translate(922.6,489.29)" style="opacity: 1; stroke-width: 0px; fill: rgb(34, 114, 180); fill-opacity: 1;" d="M3,0A3,3 0 1,1 0,-3A3,3 0 0,1 3,0Z"/><path class="point" transform="translate(943.61,489.29)" style="opacity: 1; stroke-width: 0px; fill: rgb(34, 114, 180); fill-opacity: 1;" d="M3,0A3,3 0 1,1 0,-3A3,3 0 0,1 3,0Z"/><path class="point" transform="translate(964.61,489.29)" style="opacity: 1; stroke-width: 0px; fill: rgb(34, 114, 180); fill-opacity: 1;" d="M3,0A3,3 0 1,1 0,-3A3,3 0 0,1 3,0Z"/><path class="point" transform="translate(985.62,489.29)" style="opacity: 1; stroke-width: 0px; fill: rgb(34, 114, 180); fill-opacity: 1;" d="M3,0A3,3 0 1,1 0,-3A3,3 0 0,1 3,0Z"/><path class="point" transform="translate(1006.63,489.29)" style="opacity: 1; stroke-width: 0px; fill: rgb(34, 114, 180); fill-opacity: 1;" d="M3,0A3,3 0 1,1 0,-3A3,3 0 0,1 3,0Z"/><path class="point" transform="translate(1027.63,489.29)" style="opacity: 1; stroke-width: 0px; fill: rgb(34, 114, 180); fill-opacity: 1;" d="M3,0A3,3 0 1,1 0,-3A3,3 0 0,1 3,0Z"/><path class="point" transform="translate(1048.64,489.29)" style="opacity: 1; stroke-width: 0px; fill: rgb(34, 114, 180); fill-opacity: 1;" d="M3,0A3,3 0 1,1 0,-3A3,3 0 0,1 3,0Z"/><path class="point" transform="translate(1069.64,489.29)" style="opacity: 1; stroke-width: 0px; fill: rgb(34, 114, 180); fill-opacity: 1;" d="M3,0A3,3 0 1,1 0,-3A3,3 0 0,1 3,0Z"/><path class="point" transform="translate(1090.65,489.29)" style="opacity: 1; stroke-width: 0px; fill: rgb(34, 114, 180); fill-opacity: 1;" d="M3,0A3,3 0 1,1 0,-3A3,3 0 0,1 3,0Z"/></g><g class="text"/></g></g></g><g class="overplot"/><path class="xlines-above crisp" style="fill: none;" d="M0,0"/><path class="ylines-above crisp" style="fill: none;" d="M0,0"/><g class="overlines-above"/><g class="xaxislayer-above"><g class="xtick"><text text-anchor="middle" x="0" y="531" style="font-family: TOBESTRIPPEDOpen SansTOBESTRIPPED, verdana, arial, sans-serif; font-size: 11px; fill: rgb(146, 164, 179); fill-opacity: 1; white-space: pre; opacity: 1;" transform="translate(109.35,0)">0</text></g><g class="xtick"><text text-anchor="middle" x="0" y="531" style="font-family: TOBESTRIPPEDOpen SansTOBESTRIPPED, verdana, arial, sans-serif; font-size: 11px; fill: rgb(146, 164, 179); fill-opacity: 1; white-space: pre; opacity: 1;" transform="translate(319.41,0)">10</text></g><g class="xtick"><text text-anchor="middle" x="0" y="531" style="font-family: TOBESTRIPPEDOpen SansTOBESTRIPPED, verdana, arial, sans-serif; font-size: 11px; fill: rgb(146, 164, 179); fill-opacity: 1; white-space: pre; opacity: 1;" transform="translate(529.47,0)">20</text></g><g class="xtick"><text text-anchor="middle" x="0" y="531" style="font-family: TOBESTRIPPEDOpen SansTOBESTRIPPED, verdana, arial, sans-serif; font-size: 11px; fill: rgb(146, 164, 179); fill-opacity: 1; white-space: pre; opacity: 1;" transform="translate(739.53,0)">30</text></g><g class="xtick"><text text-anchor="middle" x="0" y="531" style="font-family: TOBESTRIPPEDOpen SansTOBESTRIPPED, verdana, arial, sans-serif; font-size: 11px; fill: rgb(146, 164, 179); fill-opacity: 1; white-space: pre; opacity: 1;" transform="translate(949.59,0)">40</text></g><g class="xtick"><text text-anchor="middle" x="0" y="531" style="font-family: TOBESTRIPPEDOpen SansTOBESTRIPPED, verdana, arial, sans-serif; font-size: 11px; fill: rgb(146, 164, 179); fill-opacity: 1; white-space: pre; opacity: 1;" transform="translate(1159.66,0)">50</text></g></g><g class="yaxislayer-above"><g class="ytick"><text text-anchor="end" x="47" y="3.8499999999999996" style="font-family: TOBESTRIPPEDOpen SansTOBESTRIPPED, verdana, arial, sans-serif; font-size: 11px; fill: rgb(146, 164, 179); fill-opacity: 1; white-space: pre; opacity: 1;" transform="translate(0,489.3)">0</text></g><g class="ytick"><text text-anchor="end" x="47" y="3.8499999999999996" style="font-family: TOBESTRIPPEDOpen SansTOBESTRIPPED, verdana, arial, sans-serif; font-size: 11px; fill: rgb(146, 164, 179); fill-opacity: 1; white-space: pre; opacity: 1;" transform="translate(0,422.21)">0.002</text></g><g class="ytick"><text text-anchor="end" x="47" y="3.8499999999999996" style="font-family: TOBESTRIPPEDOpen SansTOBESTRIPPED, verdana, arial, sans-serif; font-size: 11px; fill: rgb(146, 164, 179); fill-opacity: 1; white-space: pre; opacity: 1;" transform="translate(0,355.13)">0.004</text></g><g class="ytick"><text text-anchor="end" x="47" y="3.8499999999999996" style="font-family: TOBESTRIPPEDOpen SansTOBESTRIPPED, verdana, arial, sans-serif; font-size: 11px; fill: rgb(146, 164, 179); fill-opacity: 1; white-space: pre; opacity: 1;" transform="translate(0,288.04)">0.006</text></g><g class="ytick"><text text-anchor="end" x="47" y="3.8499999999999996" style="font-family: TOBESTRIPPEDOpen SansTOBESTRIPPED, verdana, arial, sans-serif; font-size: 11px; fill: rgb(146, 164, 179); fill-opacity: 1; white-space: pre; opacity: 1;" transform="translate(0,220.95)">0.008</text></g><g class="ytick"><text text-anchor="end" x="47" y="3.8499999999999996" style="font-family: TOBESTRIPPEDOpen SansTOBESTRIPPED, verdana, arial, sans-serif; font-size: 11px; fill: rgb(146, 164, 179); fill-opacity: 1; white-space: pre; opacity: 1;" transform="translate(0,153.87)">0.01</text></g><g class="ytick"><text text-anchor="end" x="47" y="3.8499999999999996" style="font-family: TOBESTRIPPEDOpen SansTOBESTRIPPED, verdana, arial, sans-serif; font-size: 11px; fill: rgb(146, 164, 179); fill-opacity: 1; white-space: pre; opacity: 1;" transform="translate(0,86.78)">0.012</text></g><g class="ytick"><text text-anchor="end" x="47" y="3.8499999999999996" style="font-family: TOBESTRIPPEDOpen SansTOBESTRIPPED, verdana, arial, sans-serif; font-size: 11px; fill: rgb(146, 164, 179); fill-opacity: 1; white-space: pre; opacity: 1;" transform="translate(0,19.69)">0.014</text></g></g><g class="overaxes-above"/></g></g><g class="polarlayer"/><g class="ternarylayer"/><g class="geolayer"/><g class="funnelarealayer"/><g class="pielayer"/><g class="iciclelayer"/><g class="treemaplayer"/><g class="sunburstlayer"/><g class="glimages"/><defs id="topdefs-2a2e76"><g class="clips"/><clipPath id="legend2a2e76"><rect width="162" height="29" x="0" y="0"/></clipPath></defs><g class="layer-above"><g class="imagelayer"/><g class="shapelayer"/></g><g class="infolayer"><g class="legend" pointer-events="all" transform="translate(48,570.9000000000001)"><rect class="bg" shape-rendering="crispEdges" style="stroke: rgb(68, 68, 68); stroke-opacity: 1; fill: rgb(255, 255, 255); fill-opacity: 1; stroke-width: 0px;" width="162" height="29" x="0" y="0"/><g class="scrollbox" transform="" clip-path="url(#legend2a2e76)"><g class="groups"><g class="traces" style="opacity: 1;" transform="translate(0,14.5)"><text class="legendtext" text-anchor="start" style="font-family: TOBESTRIPPEDOpen SansTOBESTRIPPED, verdana, arial, sans-serif; font-size: 12px; fill: rgb(232, 236, 240); fill-opacity: 1; white-space: pre;" x="40" y="4.680000000000001">bemused-lynx-936</text><g class="layers" style="opacity: 1;"><g class="legendfill"/><g class="legendlines"><path class="js-line" d="M5,0h30" style="fill: none; stroke: rgb(34, 114, 180); stroke-opacity: 1; stroke-width: 2px;"/></g><g class="legendsymbols"><g class="legendpoints"><path class="scatterpts" transform="translate(20,0)" style="opacity: 1; stroke-width: 0px; fill: rgb(34, 114, 180); fill-opacity: 1;" d="M3,0A3,3 0 1,1 0,-3A3,3 0 0,1 3,0Z"/></g></g></g><rect class="legendtoggle" style="fill: rgb(0, 0, 0); fill-opacity: 0;" x="0" y="-9.5" width="158.88333129882812" height="19"/></g></g></g><rect class="scrollbar" rx="20" ry="3" width="0" height="0" style="fill: rgb(128, 139, 164); fill-opacity: 1;" x="0" y="0"/></g><g class="g-gtitle"/><g class="g-xtitle"><text class="xtitle" style="font-family: TOBESTRIPPEDOpen SansTOBESTRIPPED, verdana, arial, sans-serif; font-size: 14px; fill: rgb(232, 236, 240); opacity: 1; font-weight: normal; white-space: pre;" x="624" y="571" text-anchor="middle">Step</text></g><g class="g-ytitle"/></g></svg>